<svg xmlns="http://www.w3.org/2000/svg" xmlns:xlink="http://www.w3.org/1999/xlink" xml:space="preserve" version="1.1" style="shape-rendering:geometricPrecision;text-rendering:geometricPrecision;image-rendering:optimizeQuality;" viewBox="0 0 0.713 0.89125" x="0px" y="0px" fill-rule="evenodd" clip-rule="evenodd"><defs><style type="text/css">
   
    .fil0 {fill:black;fill-rule:nonzero}
   
  </style></defs><g><path class="fil0" d="M0.357 0c0.098,0 0.187,0.04 0.252,0.104 0.064,0.065 0.104,0.154 0.104,0.253 0,0.098 -0.04,0.187 -0.104,0.252 -0.065,0.064 -0.154,0.104 -0.252,0.104 -0.099,0 -0.188,-0.04 -0.253,-0.104 -0.064,-0.065 -0.104,-0.154 -0.104,-0.252 0,-0.099 0.04,-0.188 0.104,-0.253 0.065,-0.064 0.154,-0.104 0.253,-0.104zm0.184 0.346c0.001,0.003 0.002,0.006 0.002,0.009l0 0.001 0 0 0 0.001 0 0 0 0 0 0 0 0 0 0.001c0,0.003 -0.001,0.006 -0.002,0.009l0 0.001 0 0 0 0.001 0 0 -0.001 0 0 0.001 0 0 0 0 0 0.001 0 0 -0.001 0 0 0.001 0 0 0 0 0 0.001c-0.001,0.001 -0.001,0.002 -0.002,0.002l0 0 0 0.001 0 0 -0.001 0 0 0.001 0 0 0 0 -0.001 0.001 0 0 0 0 0 0 -0.001 0.001 0 0 0 0.001 -0.153 0.152c-0.013,0.013 -0.033,0.013 -0.046,0 -0.013,-0.012 -0.013,-0.033 0,-0.045l0.097 -0.098 -0.229 0c-0.018,0 -0.033,-0.014 -0.033,-0.032 0,-0.018 0.015,-0.033 0.033,-0.033l0.229 0 -0.097 -0.097c-0.013,-0.013 -0.013,-0.033 0,-0.046 0.013,-0.013 0.033,-0.013 0.046,0l0.153 0.153 0 0 0 0 0.001 0.001 0 0 0 0 0 0.001 0.001 0 0 0.001 0 0 0 0 0.001 0 0 0 0 0.001 0 0c0.001,0.001 0.001,0.002 0.002,0.002l0 0.001 0 0 0 0.001 0 0 0.001 0 0 0.001 0 0 0 0 0 0.001 0 0 0.001 0 0 0.001 0 0 0 0 0 0.001zm0.022 -0.196c-0.053,-0.053 -0.126,-0.085 -0.206,-0.085 -0.081,0 -0.154,0.032 -0.207,0.085 -0.053,0.053 -0.085,0.126 -0.085,0.207 0,0.08 0.032,0.153 0.085,0.206 0.053,0.053 0.126,0.085 0.207,0.085 0.08,0 0.153,-0.032 0.206,-0.085 0.053,-0.053 0.085,-0.126 0.085,-0.206 0,-0.081 -0.032,-0.154 -0.085,-0.207z"/></g></svg>