<svg xmlns:dc="http://purl.org/dc/elements/1.1/" xmlns:cc="http://creativecommons.org/ns#" xmlns:rdf="http://www.w3.org/1999/02/22-rdf-syntax-ns#" xmlns:svg="http://www.w3.org/2000/svg" xmlns="http://www.w3.org/2000/svg" xmlns:sodipodi="http://sodipodi.sourceforge.net/DTD/sodipodi-0.dtd" xmlns:inkscape="http://www.inkscape.org/namespaces/inkscape" viewBox="0 0 8.4666667 10.583333625" version="1.1" x="0px" y="0px"><svg:g><svg:path style="color:#000000;font-style:normal;font-variant:normal;font-weight:normal;font-stretch:normal;font-size:medium;line-height:normal;font-family:sans-serif;font-variant-ligatures:normal;font-variant-position:normal;font-variant-caps:normal;font-variant-numeric:normal;font-variant-alternates:normal;font-feature-settings:normal;text-indent:0;text-align:start;text-decoration:none;text-decoration-line:none;text-decoration-style:solid;text-decoration-color:#000000;letter-spacing:normal;word-spacing:normal;text-transform:none;writing-mode:lr-tb;direction:ltr;text-orientation:mixed;dominant-baseline:auto;baseline-shift:baseline;text-anchor:start;white-space:normal;shape-padding:0;clip-rule:nonzero;display:inline;overflow:visible;visibility:visible;opacity:1;isolation:auto;mix-blend-mode:normal;color-interpolation:sRGB;color-interpolation-filters:linearRGB;solid-color:#000000;solid-opacity:1;vector-effect:none;fill:#000000;fill-opacity:1;fill-rule:nonzero;stroke:none;stroke-width:0.52916664;stroke-linecap:round;stroke-linejoin:round;stroke-miterlimit:4;stroke-dasharray:none;stroke-dashoffset:0;stroke-opacity:1;color-rendering:auto;image-rendering:auto;shape-rendering:auto;text-rendering:auto;enable-background:accumulate" d="M 1.0076904,-2.5862791e-4 A 0.26460979,0.26460979 0 0 0 0.74414163,0.26535837 V 8.2028584 A 0.26460979,0.26460979 0 0 0 1.0076904,8.4669234 H 2.0996126 6.3655029 7.4569091 A 0.26460979,0.26460979 0 0 0 7.722527,8.2028584 V 2.3634224 A 0.26460979,0.26460979 0 0 0 7.6444934,2.1758354 L 5.5469482,0.07829037 A 0.26460979,0.26460979 0 0 0 5.3593613,-2.5862791e-4 H 4.9609385 2.0996126 Z M 1.2733083,0.52942337 H 1.8339974 V 1.8962664 a 0.26460979,0.26460979 0 0 0 0.2656152,0.264067 H 4.9609385 A 0.26460979,0.26460979 0 0 0 5.2265537,1.8962664 V 0.52942337 h 0.023254 L 7.1933601,2.4724574 v 5.464783 H 6.6311207 V 4.1679624 A 0.26460979,0.26460979 0 0 0 6.3655029,3.9023454 H 2.0996126 a 0.26460979,0.26460979 0 0 0 -0.2656152,0.265617 v 3.769278 H 1.2733083 Z m 1.0898558,0 H 4.697387 V 1.6306484 H 2.3631641 Z m 0,3.90208803 h 3.7382714 v 3.505729 H 2.3631641 Z m 0.9921875,0.531233 a 0.2646485,0.2646485 0 1 0 0,0.529167 H 5.109248 a 0.2646485,0.2646485 0 1 0 0,-0.529167 z m 0,1.099675 a 0.2646485,0.2646485 0 1 0 0,0.529166 H 5.109248 a 0.2646485,0.2646485 0 1 0 0,-0.529166 z"/></svg:g></svg>